<svg width="14" height="14" viewBox="0 0 14 14" fill="none" xmlns="http://www.w3.org/2000/svg">
<path fill-rule="evenodd" clip-rule="evenodd" d="M4.0413 0.0412569C4.77454 0.00750124 5.00833 0 6.87614 0C8.74395 0 8.97774 0.00812634 9.71037 0.0412569C10.443 0.0743874 10.9431 0.191282 11.3806 0.360685C11.8388 0.533839 12.2545 0.804509 12.5983 1.15457C12.9484 1.49775 13.2184 1.91282 13.391 2.37164C13.561 2.80922 13.6773 3.3093 13.711 4.04067C13.7448 4.77517 13.7523 5.00896 13.7523 6.87614C13.7523 8.74395 13.7442 8.97774 13.711 9.71099C13.6779 10.4424 13.561 10.9424 13.391 11.38C13.2184 11.8389 12.948 12.2547 12.5983 12.5983C12.2545 12.9484 11.8388 13.2184 11.3806 13.391C10.9431 13.561 10.443 13.6773 9.71162 13.711C8.97774 13.7448 8.74395 13.7523 6.87614 13.7523C5.00833 13.7523 4.77454 13.7442 4.0413 13.711C3.30993 13.6779 2.80984 13.561 2.37227 13.391C1.91339 13.2184 1.49764 12.9479 1.15394 12.5983C0.804121 12.255 0.53341 11.8394 0.360685 11.3806C0.191282 10.9431 0.0750125 10.443 0.0412569 9.71162C0.00750124 8.97712 0 8.74333 0 6.87614C0 5.00833 0.00812634 4.77454 0.0412569 4.04192C0.0743874 3.3093 0.191282 2.80922 0.360685 2.37164C0.533666 1.91287 0.804583 1.49732 1.15457 1.15394C1.49777 0.804197 1.91311 0.533491 2.37164 0.360685C2.80922 0.191282 3.3093 0.0750125 4.04067 0.0412569H4.0413ZM9.65473 1.27896C8.92961 1.24583 8.71207 1.23896 6.87614 1.23896C5.04021 1.23896 4.82268 1.24583 4.09756 1.27896C3.42682 1.30959 3.06301 1.42149 2.82047 1.51588C2.49979 1.6409 2.27038 1.78905 2.02971 2.02971C1.80158 2.25166 1.62601 2.52185 1.51588 2.82047C1.42149 3.06301 1.30959 3.42682 1.27896 4.09756C1.24583 4.82268 1.23896 5.04021 1.23896 6.87614C1.23896 8.71207 1.24583 8.92961 1.27896 9.65473C1.30959 10.3255 1.42149 10.6893 1.51588 10.9318C1.6259 11.23 1.80155 11.5007 2.02971 11.7226C2.25162 11.9507 2.52229 12.1264 2.82047 12.2364C3.06301 12.3308 3.42682 12.4427 4.09756 12.4733C4.82268 12.5065 5.03959 12.5133 6.87614 12.5133C8.7127 12.5133 8.92961 12.5065 9.65473 12.4733C10.3255 12.4427 10.6893 12.3308 10.9318 12.2364C11.2525 12.1114 11.4819 11.9632 11.7226 11.7226C11.9507 11.5007 12.1264 11.23 12.2364 10.9318C12.3308 10.6893 12.4427 10.3255 12.4733 9.65473C12.5065 8.92961 12.5133 8.71207 12.5133 6.87614C12.5133 5.04021 12.5065 4.82268 12.4733 4.09756C12.4427 3.42682 12.3308 3.06301 12.2364 2.82047C12.1114 2.49979 11.9632 2.27038 11.7226 2.02971C11.5006 1.80159 11.2304 1.62603 10.9318 1.51588C10.6893 1.42149 10.3255 1.30959 9.65473 1.27896ZM5.99787 8.99587C6.48837 9.20005 7.03453 9.22761 7.54309 9.07384C8.05164 8.92006 8.49103 8.5945 8.78622 8.15276C9.0814 7.71101 9.21407 7.18049 9.16155 6.6518C9.10904 6.12311 8.8746 5.62904 8.49829 5.254C8.2584 5.01426 7.96833 4.83069 7.64898 4.7165C7.32963 4.60232 6.98893 4.56036 6.65142 4.59365C6.3139 4.62694 5.98797 4.73465 5.69708 4.90902C5.40618 5.0834 5.15757 5.3201 4.96914 5.60209C4.78071 5.88408 4.65714 6.20434 4.60734 6.53981C4.55754 6.87529 4.58273 7.21763 4.68112 7.5422C4.7795 7.86677 4.94862 8.16549 5.17631 8.41685C5.404 8.66821 5.68459 8.86596 5.99787 8.99587ZM4.37698 4.37698C4.70517 4.04878 5.0948 3.78844 5.52361 3.61083C5.95241 3.43321 6.41201 3.34179 6.87614 3.34179C7.34028 3.34179 7.79988 3.43321 8.22868 3.61083C8.65749 3.78844 9.04712 4.04878 9.37531 4.37698C9.70351 4.70517 9.96384 5.0948 10.1415 5.52361C10.3191 5.95241 10.4105 6.41201 10.4105 6.87614C10.4105 7.34028 10.3191 7.79988 10.1415 8.22868C9.96384 8.65749 9.70351 9.04712 9.37531 9.37531C8.71249 10.0381 7.81351 10.4105 6.87614 10.4105C5.93878 10.4105 5.0398 10.0381 4.37698 9.37531C3.71416 8.71249 3.34179 7.81351 3.34179 6.87614C3.34179 5.93878 3.71416 5.0398 4.37698 4.37698ZM11.1944 3.86814C11.2757 3.79142 11.3408 3.69917 11.3858 3.59683C11.4309 3.4945 11.4549 3.38417 11.4565 3.27238C11.4582 3.16058 11.4374 3.0496 11.3953 2.946C11.3533 2.84239 11.2909 2.74828 11.2118 2.66922C11.1328 2.59016 11.0387 2.52777 10.9351 2.48574C10.8315 2.44371 10.7205 2.42289 10.6087 2.42452C10.4969 2.42615 10.3866 2.45019 10.2842 2.49523C10.1819 2.54026 10.0896 2.60537 10.0129 2.6867C9.86371 2.84487 9.78202 3.05496 9.78519 3.27238C9.78836 3.48979 9.87614 3.69741 10.0299 3.85117C10.1836 4.00492 10.3913 4.0927 10.6087 4.09587C10.8261 4.09904 11.0362 4.01735 11.1944 3.86814Z" fill="#34485A"/>
</svg>
